<svg width="35" height="35" viewBox="0 0 35 35" fill="none" xmlns="http://www.w3.org/2000/svg">
<path fill-rule="evenodd" clip-rule="evenodd" d="M17.5 0C7.83502 0 0 7.83502 0 17.5C0 27.165 7.83502 35 17.5 35C27.165 35 35 27.165 35 17.5C35 7.83502 27.165 0 17.5 0ZM13.6524 8.22307C14.648 8.17777 14.9661 8.16669 17.5009 8.16669H17.498C20.0335 8.16669 20.3505 8.17777 21.3461 8.22307C22.3397 8.26857 23.0183 8.42588 23.6133 8.65669C24.2278 8.89489 24.7469 9.21378 25.2661 9.73295C25.7853 10.2517 26.1042 10.7725 26.3433 11.3863C26.5728 11.9798 26.7303 12.658 26.7769 13.6516C26.8217 14.6472 26.8333 14.9653 26.8333 17.5001C26.8333 20.0349 26.8217 20.3523 26.7769 21.3478C26.7303 22.3411 26.5728 23.0195 26.3433 23.6131C26.1042 24.2268 25.7853 24.7475 25.2661 25.2663C24.7475 25.7855 24.2276 26.1051 23.6139 26.3435C23.02 26.5743 22.341 26.7317 21.3474 26.7772C20.3519 26.8225 20.0347 26.8335 17.4997 26.8335C14.9651 26.8335 14.6472 26.8225 13.6516 26.7772C12.6582 26.7317 11.9798 26.5743 11.3859 26.3435C10.7724 26.1051 10.2517 25.7855 9.73313 25.2663C9.21415 24.7475 8.89526 24.2268 8.65668 23.6129C8.42606 23.0195 8.26875 22.3412 8.22306 21.3476C8.17795 20.3521 8.16667 20.0349 8.16667 17.5001C8.16667 14.9653 8.17834 14.647 8.22287 13.6514C8.26759 12.6582 8.42509 11.9798 8.65648 11.3861C8.89565 10.7725 9.21454 10.2517 9.73371 9.73295C10.2525 9.21397 10.7732 8.89508 11.3871 8.65669C11.9805 8.42588 12.6588 8.26857 13.6524 8.22307Z" fill="white"/>
<path fill-rule="evenodd" clip-rule="evenodd" d="M16.6636 9.84852C16.8262 9.84827 17.001 9.84835 17.1898 9.84843L17.5009 9.84852C19.9929 9.84852 20.2883 9.85747 21.2723 9.90219C22.1824 9.9438 22.6763 10.0959 23.0053 10.2236C23.4408 10.3928 23.7513 10.595 24.0778 10.9217C24.4045 11.2483 24.6067 11.5595 24.7763 11.995C24.904 12.3236 25.0563 12.8175 25.0977 13.7275C25.1424 14.7114 25.1521 15.007 25.1521 17.4979C25.1521 19.9887 25.1424 20.2843 25.0977 21.2682C25.0561 22.1782 24.904 22.6721 24.7763 23.0007C24.6071 23.4362 24.4045 23.7464 24.0778 24.0729C23.7512 24.3995 23.441 24.6018 23.0053 24.7709C22.6766 24.8993 22.1824 25.0509 21.2723 25.0925C20.2884 25.1373 19.9929 25.147 17.5009 25.147C15.0086 25.147 14.7133 25.1373 13.7294 25.0925C12.8194 25.0505 12.3255 24.8985 11.9963 24.7707C11.5607 24.6016 11.2496 24.3993 10.9229 24.0727C10.5963 23.746 10.394 23.4357 10.2245 22.9999C10.0967 22.6713 9.94448 22.1774 9.90306 21.2674C9.85834 20.2835 9.8494 19.9879 9.8494 17.4955C9.8494 15.0031 9.85834 14.7091 9.90306 13.7252C9.94467 12.8152 10.0967 12.3213 10.2245 11.9923C10.3937 11.5567 10.5963 11.2456 10.9229 10.919C11.2496 10.5923 11.5607 10.3901 11.9963 10.2205C12.3253 10.0922 12.8194 9.9405 13.7294 9.89869C14.5904 9.8598 14.9241 9.84814 16.6636 9.84619V9.84852ZM22.483 11.3983C21.8646 11.3983 21.363 11.8994 21.363 12.5179C21.363 13.1362 21.8646 13.6379 22.483 13.6379C23.1013 13.6379 23.603 13.1362 23.603 12.5179C23.603 11.8996 23.1013 11.3979 22.483 11.3979V11.3983ZM12.7078 17.5C12.7078 14.853 14.8539 12.7069 17.5009 12.7069H17.5007C20.1477 12.7069 22.2932 14.853 22.2932 17.5C22.2932 20.147 20.1479 22.2921 17.5009 22.2921C14.8539 22.2921 12.7078 20.147 12.7078 17.5Z" fill="white"/>
<path d="M17.5009 14.3892C19.219 14.3892 20.612 15.782 20.612 17.5003C20.612 19.2184 19.219 20.6114 17.5009 20.6114C15.7825 20.6114 14.3897 19.2184 14.3897 17.5003C14.3897 15.782 15.7825 14.3892 17.5009 14.3892Z" fill="white"/>
</svg>
