<svg width="35" height="35" viewBox="0 0 35 35" fill="none" xmlns="http://www.w3.org/2000/svg">
<path fill-rule="evenodd" clip-rule="evenodd" d="M17.5 0C7.83502 0 0 7.83502 0 17.5C0 27.165 7.83502 35 17.5 35C27.165 35 35 27.165 35 17.5C35 7.83502 27.165 0 17.5 0ZM24.3557 9.92043C26.5133 9.98363 27.5312 11.3829 27.4064 14.1181C27.313 16.1622 25.8854 18.9606 23.1235 22.5134C20.2684 26.2231 17.8526 28.0788 15.8773 28.0788C14.6526 28.0788 13.6169 26.9496 12.7705 24.6895C12.5515 23.8862 12.3325 23.0828 12.1135 22.2795C11.7677 21.0113 11.4219 19.743 11.0759 18.4746C10.4472 16.2157 9.77353 15.0851 9.05236 15.0851C8.8952 15.0851 8.34549 15.4156 7.4042 16.0738L6.41665 14.8015C7.45311 13.8912 8.47529 12.9806 9.48099 12.0689C10.8633 10.875 11.9017 10.2466 12.5933 10.1834C14.2269 10.0263 15.2329 11.1431 15.6104 13.534C16.0184 16.114 16.3011 17.7183 16.4594 18.3463C16.9312 20.4868 17.4496 21.5559 18.0156 21.5559C18.4546 21.5559 19.1152 20.8619 19.9957 19.4728C20.8746 18.0847 21.3458 17.0284 21.4093 16.3024C21.5349 15.1044 21.0637 14.5039 19.9957 14.5039C19.493 14.5039 18.9745 14.6196 18.4413 14.8482C19.4736 11.4683 21.4453 9.82671 24.3557 9.92043Z" fill="white"/>
</svg>
